<svg width="16" height="16" viewBox="0 0 16 16" fill="none" xmlns="http://www.w3.org/2000/svg">
<rect width="16" height="16" fill="white"/>
<path d="M1.34766 7.84375C1.34766 6.375 1.83984 5.15625 2.59766 4.10156H4.04297C3.49609 4.88281 2.88672 6.4375 2.88672 7.84375C2.88672 9.25 3.49609 10.8047 4.04297 11.5938H2.59766C1.83984 10.5312 1.34766 9.3125 1.34766 7.84375ZM14.6523 7.84375C14.6523 9.3125 14.1602 10.5312 13.4023 11.5938H11.957C12.5039 10.8047 13.1133 9.25 13.1133 7.84375C13.1133 6.4375 12.5039 4.88281 11.957 4.10156H13.4023C14.1602 5.15625 14.6523 6.375 14.6523 7.84375Z" fill="black"/>
<path d="M8.56082 6.82619C8.37015 6.82619 8.04749 7.02419 7.59282 7.42019C7.13815 7.80886 6.91082 8.04719 6.91082 8.13519C6.91082 8.14986 6.92182 8.15719 6.94382 8.15719C7.10515 8.15719 7.42415 7.97753 7.90082 7.61819C8.38482 7.25886 8.62682 7.01319 8.62682 6.88119C8.62682 6.84453 8.60482 6.82619 8.56082 6.82619ZM6.21782 10.3462C5.65315 10.3462 5.37082 10.0015 5.37082 9.31219C5.37082 8.87953 5.55782 8.42119 5.93182 7.93719C6.31315 7.44586 6.76049 7.04619 7.27382 6.73819C7.78715 6.42286 8.24182 6.26519 8.63782 6.26519C8.81382 6.26519 8.97515 6.33486 9.12182 6.47419C9.27582 6.61353 9.35282 6.74919 9.35282 6.88119C9.35282 7.12319 9.18049 7.39819 8.83582 7.70619C8.49115 8.00686 8.12815 8.25253 7.74682 8.44319C7.37282 8.62653 7.12349 8.71819 6.99882 8.71819C6.88149 8.71819 6.79349 8.66319 6.73482 8.55319C6.70549 8.53119 6.66515 8.52019 6.61382 8.52019C6.56249 8.52019 6.47815 8.61919 6.36082 8.81719C6.24349 9.00786 6.18482 9.16553 6.18482 9.29019C6.18482 9.40753 6.22882 9.48086 6.31682 9.51019C6.87415 9.51019 7.47915 9.34886 8.13182 9.02619C8.78449 8.69619 9.68649 8.12053 10.8378 7.29919C10.9185 7.24053 11.0395 7.15253 11.2008 7.03519C11.3695 6.91786 11.4685 6.84819 11.4978 6.82619C11.5638 6.87753 11.5968 6.93986 11.5968 7.01319C11.5968 7.08653 11.5638 7.15253 11.4978 7.21119C11.1312 7.57786 10.6545 7.98853 10.0678 8.44319C9.48849 8.89786 8.82115 9.33053 8.06582 9.74119C7.31049 10.1445 6.69449 10.3462 6.21782 10.3462Z" fill="black"/>
</svg>
